<?xml version="1.0" encoding="utf-8" ?>
<!-- Generator: Assembly 1.0 - http://assemblyapp.co -->
<svg version="1.1" xmlns="http://www.w3.org/2000/svg" xmlns:xlink="http://www.w3.org/1999/xlink" width="300" height="300" viewBox="0 0 300 300">
	<g id="widget" transform="matrix(1,0,0,1,150,150)">
		<path d="M97.7378,-64.7131 L97.7378,-107.861 C-21.3494,-107.861 -118,-11.21 -118,107.877 L-74.8525,107.877 C-74.8525,12.5211 2.38177,-64.7131 97.7378,-64.7131 Z" fill="#023649" fill-opacity="1" />
		<path d="M90.7076,-65.3701 L90.7076,-65.3701 C79.1722,-68.4974 72.3657,-80.3671 75.493,-91.9025 L75.493,-91.9025 C78.6203,-103.438 90.49,-110.244 102.025,-107.117 L102.025,-107.117 C113.561,-103.99 120.367,-92.12 117.24,-80.5847 L117.24,-80.5847 C114.113,-69.0493 102.243,-62.2428 90.7076,-65.3701 Z" fill="#023649" fill-opacity="1" />
	</g>
</svg>