<?xml version="1.0" encoding="utf-8" ?>
<!-- Generator: Assembly 1.0 - http://assemblyapp.co -->
<svg version="1.1" xmlns="http://www.w3.org/2000/svg" xmlns:xlink="http://www.w3.org/1999/xlink" width="300" height="300" viewBox="0 0 300 300">
	<g id="widget" transform="matrix(1,0,0,1,150,150)">
		<path d="M-117.924,-4.07493 C-120.216,62.2572 -70.4072,115.632 -4.075,117.924 C62.2572,120.216 115.632,70.4072 117.924,4.07503 C120.216,-62.2572 70.4072,-115.632 4.07496,-117.924 C-62.2573,-120.216 -115.632,-70.4073 -117.924,-4.07493 Z" fill="#fefcfd" fill-opacity="1" />
		<path d="M86.6095,22.6178 C90.8491,66.9099 59.697,104.657 15.4048,108.896 C-28.8874,113.136 -66.6343,81.9839 -70.8739,37.6917 C-75.1134,-6.60052 -43.9613,-44.3475 0.330869,-48.587 C44.623,-52.8265 82.37,-21.6745 86.6095,22.6178 Z" fill="#dee8e9" fill-opacity="1" />
		<path d="M-77.1211,72.816 C-68.4922,103.586 -26.8347,121.163 19.8741,113.193 C65.503,105.406 96.7084,76.5242 93.9183,45.8531 C70.3752,34.8358 39.9313,30.2597 7.68597,34.6566 C-27.2255,39.4171 -57.2861,53.7464 -77.1211,72.816 Z" fill="#fefcfd" fill-opacity="0.594235" />
	</g>
</svg>