<?xml version="1.0" encoding="utf-8" ?>
<!-- Generator: Assembly 1.0 - http://assemblyapp.co -->
<svg version="1.1" xmlns="http://www.w3.org/2000/svg" xmlns:xlink="http://www.w3.org/1999/xlink" width="300" height="300" viewBox="0 0 300 300">
	<g id="widget" transform="matrix(1,0,0,1,150,150)">
		<path d="M50.2035,31.1417 C50.0831,62.8827 27.8621,88.7686 0.930395,88.6665 C-26.0013,88.5643 -48.0253,62.5105 -47.9049,30.7695 C-47.7845,-0.97143 -25.5635,-26.8574 1.36827,-26.7552 C28.2963,-25.6912 50.324,-0.59926 50.2035,31.1417 Z" fill="#2f2417" fill-opacity="1" />
		<path d="M-75.5832,-26.0853 L-75.5832,-26.0853 C-90.9727,-26.1437 -103.429,-38.6951 -103.371,-54.0847 L-103.371,-54.0847 C-103.313,-69.4742 -90.7611,-81.9308 -75.3715,-81.8724 L-75.3715,-81.8724 C-59.982,-81.814 -47.5254,-69.2626 -47.5838,-53.873 L-47.5838,-53.873 C-47.6422,-38.4835 -60.1936,-26.0269 -75.5832,-26.0853 Z" fill="#493823" fill-opacity="1" />
		<path d="M106.505,-104.267 L-105.101,-105.07 C-111.834,-105.095 -117.627,-99.3462 -117.653,-92.6133 L-117.999,-1.23781 C-118.218,56.473 -66.4536,102.839 -0.0861911,103.091 C65.3194,103.339 117.434,57.367 117.653,-0.343814 L118,-91.7193 C118.025,-98.4522 113.238,-104.242 106.505,-104.267 Z" fill="#e0d4c6" fill-opacity="1" />
		<path d="M92.0738,-103.36 L-90.6772,-104.053 L-90.7939,-73.2742 C-90.8377,-61.732 -81.2594,-51.1152 -68.7554,-51.0678 L69.7506,-50.5423 C81.2928,-50.4985 90.9478,-60.0805 91.9534,-71.619 C91.9534,-71.619 92.0738,-103.36 92.0738,-103.36 Z" fill="#ffffff" fill-opacity="1" />
		<path d="M-90.7757,-78.0834 L-90.7757,-78.0834 C-73.4186,-89.5599 -38.7629,-97.1233 0.672789,-96.9737 C40.1085,-96.8241 74.7058,-88.9979 91.9789,-78.352 L92.0811,-105.284 L-90.6699,-105.977 L-90.7757,-78.0834 Z" fill="#dce8eb" fill-opacity="1" />
		<path d="M51.1155,44.2831 C50.9951,76.0241 28.7741,101.91 1.84239,101.808 C-25.0893,101.706 -47.1133,75.6519 -46.9929,43.9109 C-46.8725,12.1699 -24.6515,-13.716 2.28026,-13.6138 C29.212,-13.5117 51.2359,12.5421 51.1155,44.2831 Z" fill="#222327" fill-opacity="1" />
		<path d="M-79.8137,74.8941 C-60.6497,94.204 -31.8381,105.856 -0.097133,105.976 C31.6438,106.096 60.543,94.6638 79.853,75.4998 C64.5218,60.0519 34.7447,49.3584 0.118156,49.2271 C-34.5083,49.0957 -64.3658,59.5629 -79.8137,74.8941 Z" fill="#ff5064" fill-opacity="1" />
	</g>
</svg>