<?xml version="1.0" encoding="utf-8" ?>
<!-- Generator: Assembly 1.0 - http://assemblyapp.co -->
<svg version="1.1" xmlns="http://www.w3.org/2000/svg" xmlns:xlink="http://www.w3.org/1999/xlink" width="300" height="300" viewBox="0 0 300 300">
	<g id="widget" transform="matrix(1,0,0,1,150,150)">
		<path d="M-89.8611,32.1458 C-56.7223,38.4208 -29.8129,62.3056 -19.2317,93.7011 C-12.9242,95.0077 -6.38874,95.6942 0.30831,95.6942 C7.00536,95.6942 13.5409,95.0077 19.8483,93.7011 C30.4295,62.3056 57.3389,38.4208 90.4777,32.1458 C94.0551,22.1005 96.0026,11.2793 96.0026,1.87991e-05 L96.0026,-95.6942 L-95.3859,-95.6942 L-95.3859,1.87991e-05 C-95.3859,11.2793 -93.4384,22.1005 -89.8611,32.1458 Z" fill="#f0d53f" fill-opacity="1" />
		<path d="M100.883,-25.4442 L56.1139,-34.0363 C52.1797,-34.7913 49.6713,-38.5783 50.4134,-42.4446 L58.9924,-87.1456 C59.7475,-91.0798 63.5344,-93.5882 67.4008,-92.8461 L112.17,-84.2541 C116.104,-83.499 118.612,-79.7121 117.87,-75.8457 L109.278,-31.0769 C108.481,-27.2914 104.749,-24.7022 100.883,-25.4442 Z" fill="#f0d53f" fill-opacity="1" />
		<path d="M-100.883,-25.4442 L-56.1139,-34.0363 C-52.1797,-34.7913 -49.6713,-38.5783 -50.4134,-42.4446 L-58.9924,-87.1456 C-59.7475,-91.0798 -63.5344,-93.5882 -67.4008,-92.8461 L-112.17,-84.2541 C-116.104,-83.499 -118.612,-79.7121 -117.87,-75.8457 L-109.278,-31.0769 C-108.481,-27.2914 -104.749,-24.7022 -100.883,-25.4442 Z" fill="#f0d53f" fill-opacity="1" />
		<path d="M35.5927,-28.2905 C35.5927,-38.758 27.0986,-47.3379 16.5453,-47.3379 C7.62215,-47.3379 0.0718246,-41.1604 -1.98736,-32.6663 C-3.96074,-41.0746 -11.5111,-47.3379 -20.52,-47.3379 C-30.9875,-47.3379 -39.5674,-38.8438 -39.5674,-28.2905 C-39.5674,-23.0568 -38.1088,-19.1958 -34.6768,-15.7638 L-34.6768,-15.7638 L-34.6768,-15.7638 C-34.3336,-15.4206 -33.3899,-14.4769 -32.8751,-13.9621 L-1.90156,14.5233 L29.0719,-14.0479 C29.5009,-14.3911 29.5867,-14.5627 29.9299,-14.8201 L30.0157,-14.9059 L30.0157,-14.9059 C33.3619,-18.3378 35.5927,-23.0568 35.5927,-28.2905 Z" fill="#fae573" fill-opacity="1" />
	</g>
</svg>